<mxfile host="app.diagrams.net" agent="Mozilla/5.0 (X11; Ubuntu; Linux x86_64; rv:140.0) Gecko/20100101 Firefox/140.0" version="27.2.0">
  <diagram name="Page-1" id="k0O-IrG4hoepx7qbGlG3">
    <mxGraphModel dx="1360" dy="751" grid="1" gridSize="10" guides="1" tooltips="1" connect="1" arrows="1" fold="1" page="1" pageScale="1" pageWidth="850" pageHeight="1100" math="0" shadow="0">
      <root>
        <mxCell id="0" />
        <mxCell id="1" parent="0" />
        <mxCell id="6EVoZI2vNyR3V_LeO-Q5-1" value="" style="rounded=0;whiteSpace=wrap;html=1;" parent="1" vertex="1">
          <mxGeometry x="150" y="750" width="120" height="60" as="geometry" />
        </mxCell>
        <mxCell id="6EVoZI2vNyR3V_LeO-Q5-2" value="" style="rounded=1;whiteSpace=wrap;html=1;" parent="1" vertex="1">
          <mxGeometry x="110" y="720" width="610" height="280" as="geometry" />
        </mxCell>
        <mxCell id="6EVoZI2vNyR3V_LeO-Q5-3" value="Selected Product Store" style="rounded=0;whiteSpace=wrap;html=1;" parent="1" vertex="1">
          <mxGeometry x="520" y="750" width="120" height="60" as="geometry" />
        </mxCell>
        <mxCell id="6EVoZI2vNyR3V_LeO-Q5-4" value="Cart Store" style="rounded=0;whiteSpace=wrap;html=1;" parent="1" vertex="1">
          <mxGeometry x="340" y="750" width="120" height="60" as="geometry" />
        </mxCell>
        <mxCell id="6EVoZI2vNyR3V_LeO-Q5-5" value="Products Store" style="rounded=0;whiteSpace=wrap;html=1;" parent="1" vertex="1">
          <mxGeometry x="150" y="750" width="120" height="60" as="geometry" />
        </mxCell>
        <mxCell id="6EVoZI2vNyR3V_LeO-Q5-6" value="&lt;b&gt;&lt;font style=&quot;font-size: 18px;&quot;&gt;Pinia&lt;/font&gt;&lt;/b&gt;&amp;nbsp;" style="text;strokeColor=none;align=center;fillColor=none;html=1;verticalAlign=middle;whiteSpace=wrap;rounded=0;" parent="1" vertex="1">
          <mxGeometry x="110" y="680" width="110" height="30" as="geometry" />
        </mxCell>
        <mxCell id="Fpq2lhmmF9fSKZrgBPk6-5" style="edgeStyle=orthogonalEdgeStyle;rounded=0;orthogonalLoop=1;jettySize=auto;html=1;" edge="1" parent="1" source="Fpq2lhmmF9fSKZrgBPk6-1" target="6EVoZI2vNyR3V_LeO-Q5-5">
          <mxGeometry relative="1" as="geometry" />
        </mxCell>
        <mxCell id="Fpq2lhmmF9fSKZrgBPk6-10" style="edgeStyle=orthogonalEdgeStyle;rounded=0;orthogonalLoop=1;jettySize=auto;html=1;exitX=0.75;exitY=1;exitDx=0;exitDy=0;" edge="1" parent="1" source="Fpq2lhmmF9fSKZrgBPk6-1" target="6EVoZI2vNyR3V_LeO-Q5-4">
          <mxGeometry relative="1" as="geometry">
            <Array as="points">
              <mxPoint x="220" y="580" />
              <mxPoint x="400" y="580" />
            </Array>
          </mxGeometry>
        </mxCell>
        <mxCell id="Fpq2lhmmF9fSKZrgBPk6-1" value="Products Page" style="rounded=1;whiteSpace=wrap;html=1;" vertex="1" parent="1">
          <mxGeometry x="130" y="410" width="120" height="60" as="geometry" />
        </mxCell>
        <mxCell id="Fpq2lhmmF9fSKZrgBPk6-2" value="Product Page" style="rounded=1;whiteSpace=wrap;html=1;" vertex="1" parent="1">
          <mxGeometry x="720" y="435" width="120" height="60" as="geometry" />
        </mxCell>
        <mxCell id="Fpq2lhmmF9fSKZrgBPk6-9" style="edgeStyle=orthogonalEdgeStyle;rounded=0;orthogonalLoop=1;jettySize=auto;html=1;exitX=0.5;exitY=1;exitDx=0;exitDy=0;entryX=0.25;entryY=0;entryDx=0;entryDy=0;" edge="1" parent="1" source="Fpq2lhmmF9fSKZrgBPk6-3" target="6EVoZI2vNyR3V_LeO-Q5-4">
          <mxGeometry relative="1" as="geometry" />
        </mxCell>
        <mxCell id="Fpq2lhmmF9fSKZrgBPk6-3" value="Side Cart" style="rounded=1;whiteSpace=wrap;html=1;" vertex="1" parent="1">
          <mxGeometry x="460" y="410" width="120" height="60" as="geometry" />
        </mxCell>
        <mxCell id="Fpq2lhmmF9fSKZrgBPk6-7" style="edgeStyle=orthogonalEdgeStyle;rounded=0;orthogonalLoop=1;jettySize=auto;html=1;exitX=0.5;exitY=1;exitDx=0;exitDy=0;entryX=0.75;entryY=0;entryDx=0;entryDy=0;" edge="1" parent="1" source="Fpq2lhmmF9fSKZrgBPk6-4" target="6EVoZI2vNyR3V_LeO-Q5-5">
          <mxGeometry relative="1" as="geometry">
            <mxPoint x="310" y="580" as="targetPoint" />
          </mxGeometry>
        </mxCell>
        <mxCell id="Fpq2lhmmF9fSKZrgBPk6-4" value="Sort Dropdown" style="rounded=1;whiteSpace=wrap;html=1;" vertex="1" parent="1">
          <mxGeometry x="300" y="410" width="120" height="60" as="geometry" />
        </mxCell>
        <mxCell id="Fpq2lhmmF9fSKZrgBPk6-6" value="Fetch Products" style="ellipse;whiteSpace=wrap;html=1;" vertex="1" parent="1">
          <mxGeometry x="110" y="510" width="100" height="40" as="geometry" />
        </mxCell>
        <mxCell id="Fpq2lhmmF9fSKZrgBPk6-8" value="Sort Products" style="ellipse;whiteSpace=wrap;html=1;" vertex="1" parent="1">
          <mxGeometry x="305" y="495" width="105" height="45" as="geometry" />
        </mxCell>
        <mxCell id="Fpq2lhmmF9fSKZrgBPk6-11" value="Fetch Products" style="ellipse;whiteSpace=wrap;html=1;" vertex="1" parent="1">
          <mxGeometry x="200" y="560" width="100" height="40" as="geometry" />
        </mxCell>
      </root>
    </mxGraphModel>
  </diagram>
</mxfile>
